<svg xmlns="http://www.w3.org/2000/svg" width="820" height="400" viewBox="0 0 820 400" font-family="'Noto Sans TC','Segoe UI',Arial,sans-serif">
  <rect width="820" height="400" fill="#ffffff"/>
  <line x1="240" y1="59" x2="130" y2="91" stroke="#555" stroke-width="1.6"/>
  <line x1="240" y1="59" x2="350" y2="91" stroke="#555" stroke-width="1.6"/>
  <line x1="130" y1="129" x2="70" y2="161" stroke="#555" stroke-width="1.6"/>
  <line x1="130" y1="129" x2="190" y2="161" stroke="#555" stroke-width="1.6"/>
  <line x1="350" y1="129" x2="350" y2="161" stroke="#555" stroke-width="1.6"/>
  <line x1="350" y1="199" x2="320" y2="235" stroke="#555" stroke-width="1.6"/>
  <line x1="350" y1="199" x2="380" y2="235" stroke="#555" stroke-width="1.6"/>
  <line x1="70" y1="199" x2="40" y2="235" stroke="#555" stroke-width="1.6"/>
  <line x1="70" y1="199" x2="100" y2="235" stroke="#555" stroke-width="1.6"/>
  <line x1="190" y1="199" x2="160" y2="235" stroke="#555" stroke-width="1.6"/>
  <line x1="190" y1="199" x2="220" y2="235" stroke="#555" stroke-width="1.6"/>
  <line x1="536" y1="59" x2="440" y2="95" stroke="#555" stroke-width="1.6"/>
  <line x1="536" y1="59" x2="633" y2="91" stroke="#555" stroke-width="1.6"/>
  <line x1="633" y1="129" x2="550" y2="161" stroke="#555" stroke-width="1.6"/>
  <line x1="633" y1="129" x2="715" y2="161" stroke="#555" stroke-width="1.6"/>
  <line x1="550" y1="199" x2="520" y2="235" stroke="#555" stroke-width="1.6"/>
  <line x1="550" y1="199" x2="580" y2="235" stroke="#555" stroke-width="1.6"/>
  <line x1="715" y1="199" x2="670" y2="231" stroke="#555" stroke-width="1.6"/>
  <line x1="715" y1="199" x2="760" y2="235" stroke="#555" stroke-width="1.6"/>
  <line x1="670" y1="269" x2="640" y2="305" stroke="#555" stroke-width="1.6"/>
  <line x1="670" y1="269" x2="700" y2="305" stroke="#555" stroke-width="1.6"/>
  <text x="191.6" y="71.9" font-size="15" fill="#222" text-anchor="middle">0</text>
  <text x="286.4" y="71.9" font-size="15" fill="#222" text-anchor="middle">1</text>
  <text x="98.6" y="141.9" font-size="15" fill="#222" text-anchor="middle">0</text>
  <text x="159.4" y="141.9" font-size="15" fill="#222" text-anchor="middle">1</text>
  <text x="359.0" y="141.9" font-size="15" fill="#222" text-anchor="middle">0</text>
  <text x="328.8" y="213.2" font-size="15" fill="#222" text-anchor="middle">0</text>
  <text x="369.2" y="213.2" font-size="15" fill="#222" text-anchor="middle">1</text>
  <text x="48.8" y="213.2" font-size="15" fill="#222" text-anchor="middle">0</text>
  <text x="89.2" y="213.2" font-size="15" fill="#222" text-anchor="middle">1</text>
  <text x="168.8" y="213.2" font-size="15" fill="#222" text-anchor="middle">0</text>
  <text x="209.2" y="213.2" font-size="15" fill="#222" text-anchor="middle">1</text>
  <text x="492.4" y="73.2" font-size="15" fill="#222" text-anchor="middle">0</text>
  <text x="578.0" y="71.9" font-size="15" fill="#222" text-anchor="middle">1</text>
  <text x="593.8" y="141.9" font-size="15" fill="#222" text-anchor="middle">0</text>
  <text x="669.9" y="141.9" font-size="15" fill="#222" text-anchor="middle">1</text>
  <text x="528.8" y="213.2" font-size="15" fill="#222" text-anchor="middle">0</text>
  <text x="569.2" y="213.2" font-size="15" fill="#222" text-anchor="middle">1</text>
  <text x="688.7" y="211.9" font-size="15" fill="#222" text-anchor="middle">0</text>
  <text x="739.3" y="213.2" font-size="15" fill="#222" text-anchor="middle">1</text>
  <text x="648.8" y="283.2" font-size="15" fill="#222" text-anchor="middle">0</text>
  <text x="689.2" y="283.2" font-size="15" fill="#222" text-anchor="middle">1</text>
  <circle cx="240" cy="40" r="19" fill="#e9edf2" stroke="#334" stroke-width="1.6"/>
  <text x="240" y="45" font-size="15" text-anchor="middle" fill="#111">100</text>
  <circle cx="130" cy="110" r="19" fill="#e9edf2" stroke="#334" stroke-width="1.6"/>
  <text x="130" y="115" font-size="15" text-anchor="middle" fill="#111">86</text>
  <circle cx="350" cy="110" r="19" fill="#e9edf2" stroke="#334" stroke-width="1.6"/>
  <text x="350" y="115" font-size="15" text-anchor="middle" fill="#111">14</text>
  <circle cx="70" cy="180" r="19" fill="#e9edf2" stroke="#334" stroke-width="1.6"/>
  <text x="70" y="185" font-size="15" text-anchor="middle" fill="#111">58</text>
  <circle cx="190" cy="180" r="19" fill="#e9edf2" stroke="#334" stroke-width="1.6"/>
  <text x="190" y="185" font-size="15" text-anchor="middle" fill="#111">28</text>
  <circle cx="350" cy="180" r="19" fill="#e9edf2" stroke="#334" stroke-width="1.6"/>
  <text x="350" y="185" font-size="15" text-anchor="middle" fill="#111">14</text>
  <rect x="15" y="235" width="50" height="30" rx="4" fill="#f2f2ef" stroke="#334" stroke-width="1.4"/>
  <text x="40" y="255" font-size="14.5" text-anchor="middle" fill="#111">a:45</text>
  <rect x="75" y="235" width="50" height="30" rx="4" fill="#f2f2ef" stroke="#334" stroke-width="1.4"/>
  <text x="100" y="255" font-size="14.5" text-anchor="middle" fill="#111">b:13</text>
  <rect x="135" y="235" width="50" height="30" rx="4" fill="#f2f2ef" stroke="#334" stroke-width="1.4"/>
  <text x="160" y="255" font-size="14.5" text-anchor="middle" fill="#111">c:12</text>
  <rect x="195" y="235" width="50" height="30" rx="4" fill="#f2f2ef" stroke="#334" stroke-width="1.4"/>
  <text x="220" y="255" font-size="14.5" text-anchor="middle" fill="#111">d:16</text>
  <rect x="295" y="235" width="50" height="30" rx="4" fill="#f2f2ef" stroke="#334" stroke-width="1.4"/>
  <text x="320" y="255" font-size="14.5" text-anchor="middle" fill="#111">e:9</text>
  <rect x="355" y="235" width="50" height="30" rx="4" fill="#f2f2ef" stroke="#334" stroke-width="1.4"/>
  <text x="380" y="255" font-size="14.5" text-anchor="middle" fill="#111">f:5</text>
  <circle cx="536" cy="40" r="19" fill="#e9edf2" stroke="#334" stroke-width="1.6"/>
  <text x="536" y="45" font-size="15" text-anchor="middle" fill="#111">100</text>
  <rect x="415" y="95" width="50" height="30" rx="4" fill="#f2f2ef" stroke="#334" stroke-width="1.4"/>
  <text x="440" y="115" font-size="14.5" text-anchor="middle" fill="#111">a:45</text>
  <circle cx="633" cy="110" r="19" fill="#e9edf2" stroke="#334" stroke-width="1.6"/>
  <text x="633" y="115" font-size="15" text-anchor="middle" fill="#111">55</text>
  <circle cx="550" cy="180" r="19" fill="#e9edf2" stroke="#334" stroke-width="1.6"/>
  <text x="550" y="185" font-size="15" text-anchor="middle" fill="#111">25</text>
  <circle cx="715" cy="180" r="19" fill="#e9edf2" stroke="#334" stroke-width="1.6"/>
  <text x="715" y="185" font-size="15" text-anchor="middle" fill="#111">30</text>
  <rect x="495" y="235" width="50" height="30" rx="4" fill="#f2f2ef" stroke="#334" stroke-width="1.4"/>
  <text x="520" y="255" font-size="14.5" text-anchor="middle" fill="#111">c:12</text>
  <rect x="555" y="235" width="50" height="30" rx="4" fill="#f2f2ef" stroke="#334" stroke-width="1.4"/>
  <text x="580" y="255" font-size="14.5" text-anchor="middle" fill="#111">b:13</text>
  <circle cx="670" cy="250" r="19" fill="#e9edf2" stroke="#334" stroke-width="1.6"/>
  <text x="670" y="255" font-size="15" text-anchor="middle" fill="#111">14</text>
  <rect x="735" y="235" width="50" height="30" rx="4" fill="#f2f2ef" stroke="#334" stroke-width="1.4"/>
  <text x="760" y="255" font-size="14.5" text-anchor="middle" fill="#111">d:16</text>
  <rect x="615" y="305" width="50" height="30" rx="4" fill="#f2f2ef" stroke="#334" stroke-width="1.4"/>
  <text x="640" y="325" font-size="14.5" text-anchor="middle" fill="#111">f:5</text>
  <rect x="675" y="305" width="50" height="30" rx="4" fill="#f2f2ef" stroke="#334" stroke-width="1.4"/>
  <text x="700" y="325" font-size="14.5" text-anchor="middle" fill="#111">e:9</text>
  <text x="220" y="385" font-size="17" text-anchor="middle" fill="#111">(a) 固定長度編碼</text>
  <text x="610" y="385" font-size="17" text-anchor="middle" fill="#111">(b) Huffman 編碼</text>
</svg>
