<svg xmlns="http://www.w3.org/2000/svg" width="800" height="345" viewBox="0 0 800 345" font-family="'Noto Sans TC','Segoe UI',Arial,sans-serif">
  <rect width="800" height="345" fill="#ffffff"/>
  <line x1="345" y1="90" x2="345" y2="312" stroke="#ddd" stroke-width="1"/>
  <line x1="650" y1="90" x2="650" y2="312" stroke="#ddd" stroke-width="1"/>
  <line x1="30" y1="280" x2="312" y2="280" stroke="#999" stroke-width="1.2"/>
  <rect x="40" y="250" width="46" height="30" fill="#cfe3f7" stroke="#46566b" stroke-width="1.4"/>
  <text x="63" y="270" font-size="14" text-anchor="middle" fill="#1a2733">10</text>
  <text x="63" y="300" font-size="13.5" text-anchor="middle" fill="#1a2733">$60</text>
  <text x="63" y="232" font-size="14" text-anchor="middle" fill="#333" font-style="italic">物品1</text>
  <rect x="112" y="220" width="46" height="60" fill="#bfe0c9" stroke="#46566b" stroke-width="1.4"/>
  <text x="135" y="255" font-size="14" text-anchor="middle" fill="#1a2733">20</text>
  <text x="135" y="300" font-size="13.5" text-anchor="middle" fill="#1a2733">$100</text>
  <text x="135" y="202" font-size="14" text-anchor="middle" fill="#333" font-style="italic">物品2</text>
  <rect x="184" y="190" width="46" height="90" fill="#f7d9c0" stroke="#46566b" stroke-width="1.4"/>
  <text x="207" y="240" font-size="14" text-anchor="middle" fill="#1a2733">30</text>
  <text x="207" y="300" font-size="13.5" text-anchor="middle" fill="#1a2733">$120</text>
  <text x="207" y="172" font-size="14" text-anchor="middle" fill="#333" font-style="italic">物品3</text>
  <rect x="256" y="130" width="46" height="150" fill="none" stroke="#888" stroke-width="1.6" stroke-dasharray="5 4"/>
  <text x="279" y="148" font-size="13" text-anchor="middle" fill="#555">50</text>
  <text x="279" y="112" font-size="14" text-anchor="middle" fill="#333" font-style="italic">背包</text>
  <text x="160" y="330" font-size="16" text-anchor="middle" fill="#111">(a) 三件物品，容量 50 磅</text>
  <rect x="380" y="220" width="46" height="60" fill="#bfe0c9" stroke="#46566b" stroke-width="1.4"/>
  <text x="403" y="255" font-size="14" text-anchor="middle" fill="#1a2733">20</text>
  <text x="434" y="255" font-size="13.5" text-anchor="start" fill="#1a2733">$100</text>
  <rect x="380" y="130" width="46" height="90" fill="#f7d9c0" stroke="#46566b" stroke-width="1.4"/>
  <text x="403" y="180" font-size="14" text-anchor="middle" fill="#1a2733">30</text>
  <text x="434" y="180" font-size="13.5" text-anchor="start" fill="#1a2733">$120</text>
  <text x="403" y="305" font-size="14" text-anchor="middle" fill="#111">= $220</text>
  <rect x="470" y="250" width="46" height="30" fill="#cfe3f7" stroke="#46566b" stroke-width="1.4"/>
  <text x="493" y="270" font-size="14" text-anchor="middle" fill="#1a2733">10</text>
  <text x="524" y="270" font-size="13.5" text-anchor="start" fill="#1a2733">$60</text>
  <rect x="470" y="190" width="46" height="60" fill="#bfe0c9" stroke="#46566b" stroke-width="1.4"/>
  <text x="493" y="225" font-size="14" text-anchor="middle" fill="#1a2733">20</text>
  <text x="524" y="225" font-size="13.5" text-anchor="start" fill="#1a2733">$100</text>
  <text x="493" y="305" font-size="14" text-anchor="middle" fill="#111">= $160</text>
  <rect x="560" y="250" width="46" height="30" fill="#cfe3f7" stroke="#46566b" stroke-width="1.4"/>
  <text x="583" y="270" font-size="14" text-anchor="middle" fill="#1a2733">10</text>
  <text x="614" y="270" font-size="13.5" text-anchor="start" fill="#1a2733">$60</text>
  <rect x="560" y="160" width="46" height="90" fill="#f7d9c0" stroke="#46566b" stroke-width="1.4"/>
  <text x="583" y="210" font-size="14" text-anchor="middle" fill="#1a2733">30</text>
  <text x="614" y="210" font-size="13.5" text-anchor="start" fill="#1a2733">$120</text>
  <text x="583" y="305" font-size="14" text-anchor="middle" fill="#111">= $180</text>
  <text x="495" y="330" font-size="16" text-anchor="middle" fill="#111">(b) 0-1 背包（左為最佳解）</text>
  <rect x="690" y="250" width="46" height="30" fill="#cfe3f7" stroke="#46566b" stroke-width="1.4"/>
  <text x="713" y="270" font-size="14" text-anchor="middle" fill="#1a2733">10</text>
  <text x="744" y="270" font-size="13.5" text-anchor="start" fill="#1a2733">$60</text>
  <rect x="690" y="190" width="46" height="60" fill="#bfe0c9" stroke="#46566b" stroke-width="1.4"/>
  <text x="713" y="225" font-size="14" text-anchor="middle" fill="#1a2733">20</text>
  <text x="744" y="225" font-size="13.5" text-anchor="start" fill="#1a2733">$100</text>
  <rect x="690" y="130" width="46" height="60" fill="#fce8d6" stroke="#46566b" stroke-width="1.4" stroke-dasharray="0"/>
  <text x="713" y="165" font-size="14" text-anchor="middle" fill="#1a2733">20</text>
  <text x="744" y="165" font-size="13.5" text-anchor="start" fill="#1a2733">$80</text>
  <text x="713" y="305" font-size="14" text-anchor="middle" fill="#111">= $240</text>
  <text x="713" y="330" font-size="16" text-anchor="middle" fill="#111">(c) 連續背包</text>
</svg>
