<svg xmlns="http://www.w3.org/2000/svg" width="840" height="300" viewBox="0 0 840 300" font-family="'Noto Sans TC','Segoe UI',Arial,sans-serif">
<rect width="840" height="300" fill="#ffffff"/>
<defs><marker id="hwarr" markerWidth="8" markerHeight="8" refX="6" refY="4" orient="auto"><path d="M0,0 L7,4 L0,8 z" fill="#2b62c9"/></marker></defs>
<text x="300" y="44" font-size="17" font-style="italic" text-anchor="middle" fill="#333">m</text>
<polygon points="150,180 180,210 150,240 120,210" fill="#ffffff" stroke="#b9bdc2" stroke-width="1.1"/>
<text x="150" y="214" font-size="12" text-anchor="middle" fill="#1a1a1a">0</text>
<polygon points="210,180 240,210 210,240 180,210" fill="#ffffff" stroke="#b9bdc2" stroke-width="1.1"/>
<text x="210" y="214" font-size="12" text-anchor="middle" fill="#1a1a1a">0</text>
<polygon points="270,180 300,210 270,240 240,210" fill="#ffffff" stroke="#b9bdc2" stroke-width="1.1"/>
<text x="270" y="214" font-size="12" text-anchor="middle" fill="#1a1a1a">0</text>
<polygon points="330,180 360,210 330,240 300,210" fill="#ffffff" stroke="#b9bdc2" stroke-width="1.1"/>
<text x="330" y="214" font-size="12" text-anchor="middle" fill="#1a1a1a">0</text>
<polygon points="390,180 420,210 390,240 360,210" fill="#ffffff" stroke="#b9bdc2" stroke-width="1.1"/>
<text x="390" y="214" font-size="12" text-anchor="middle" fill="#1a1a1a">0</text>
<polygon points="450,180 480,210 450,240 420,210" fill="#ffffff" stroke="#b9bdc2" stroke-width="1.1"/>
<text x="450" y="214" font-size="12" text-anchor="middle" fill="#1a1a1a">0</text>
<polygon points="180,150 210,180 180,210 150,180" fill="#ffffff" stroke="#b9bdc2" stroke-width="1.1"/>
<text x="180" y="184" font-size="12" text-anchor="middle" fill="#1a1a1a">15,750</text>
<polygon points="240,150 270,180 240,210 210,180" fill="#ffffff" stroke="#b9bdc2" stroke-width="1.1"/>
<text x="240" y="184" font-size="12" text-anchor="middle" fill="#1a1a1a">2,625</text>
<polygon points="300,150 330,180 300,210 270,180" fill="#ffffff" stroke="#b9bdc2" stroke-width="1.1"/>
<text x="300" y="184" font-size="12" text-anchor="middle" fill="#1a1a1a">750</text>
<polygon points="360,150 390,180 360,210 330,180" fill="#ffffff" stroke="#b9bdc2" stroke-width="1.1"/>
<text x="360" y="184" font-size="12" text-anchor="middle" fill="#1a1a1a">1,000</text>
<polygon points="420,150 450,180 420,210 390,180" fill="#ffffff" stroke="#b9bdc2" stroke-width="1.1"/>
<text x="420" y="184" font-size="12" text-anchor="middle" fill="#1a1a1a">5,000</text>
<polygon points="210,120 240,150 210,180 180,150" fill="#ffffff" stroke="#b9bdc2" stroke-width="1.1"/>
<text x="210" y="154" font-size="12" text-anchor="middle" fill="#1a1a1a">7,875</text>
<polygon points="270,120 300,150 270,180 240,150" fill="#ffffff" stroke="#b9bdc2" stroke-width="1.1"/>
<text x="270" y="154" font-size="12" text-anchor="middle" fill="#1a1a1a">4,375</text>
<polygon points="330,120 360,150 330,180 300,150" fill="#ffffff" stroke="#b9bdc2" stroke-width="1.1"/>
<text x="330" y="154" font-size="12" text-anchor="middle" fill="#1a1a1a">2,500</text>
<polygon points="390,120 420,150 390,180 360,150" fill="#ffffff" stroke="#b9bdc2" stroke-width="1.1"/>
<text x="390" y="154" font-size="12" text-anchor="middle" fill="#1a1a1a">3,500</text>
<polygon points="240,90 270,120 240,150 210,120" fill="#ffffff" stroke="#b9bdc2" stroke-width="1.1"/>
<text x="240" y="124" font-size="12" text-anchor="middle" fill="#1a1a1a">9,375</text>
<polygon points="300,90 330,120 300,150 270,120" fill="#ffffff" stroke="#b9bdc2" stroke-width="1.1"/>
<text x="300" y="124" font-size="12" text-anchor="middle" fill="#1a1a1a">7,125</text>
<polygon points="360,90 390,120 360,150 330,120" fill="#ffffff" stroke="#b9bdc2" stroke-width="1.1"/>
<text x="360" y="124" font-size="12" text-anchor="middle" fill="#1a1a1a">5,375</text>
<polygon points="270,60 300,90 270,120 240,90" fill="#ffffff" stroke="#b9bdc2" stroke-width="1.1"/>
<text x="270" y="94" font-size="12" text-anchor="middle" fill="#1a1a1a">11,875</text>
<polygon points="330,60 360,90 330,120 300,90" fill="#ffffff" stroke="#b9bdc2" stroke-width="1.1"/>
<text x="330" y="94" font-size="12" text-anchor="middle" fill="#1a1a1a">10,500</text>
<polygon points="300,30 330,60 300,90 270,60" fill="#ffffff" stroke="#b9bdc2" stroke-width="1.1"/>
<text x="300" y="64" font-size="12" text-anchor="middle" fill="#1a1a1a">15,125</text>
<text x="109" y="214" font-size="12.5" text-anchor="middle" fill="#555">1</text>
<text x="139" y="184" font-size="12.5" text-anchor="middle" fill="#555">2</text>
<text x="169" y="154" font-size="12.5" text-anchor="middle" fill="#555">3</text>
<text x="199" y="124" font-size="12.5" text-anchor="middle" fill="#555">4</text>
<text x="229" y="94" font-size="12.5" text-anchor="middle" fill="#555">5</text>
<text x="259" y="64" font-size="12.5" text-anchor="middle" fill="#555">6</text>
<text x="491" y="214" font-size="12.5" text-anchor="middle" fill="#555">6</text>
<text x="461" y="184" font-size="12.5" text-anchor="middle" fill="#555">5</text>
<text x="431" y="154" font-size="12.5" text-anchor="middle" fill="#555">4</text>
<text x="401" y="124" font-size="12.5" text-anchor="middle" fill="#555">3</text>
<text x="371" y="94" font-size="12.5" text-anchor="middle" fill="#555">2</text>
<text x="341" y="64" font-size="12.5" text-anchor="middle" fill="#555">1</text>
<text x="665" y="44" font-size="17" font-style="italic" text-anchor="middle" fill="#333">s</text>
<polygon points="545,150 575,180 545,210 515,180" fill="#ffffff" stroke="#b9bdc2" stroke-width="1.1"/>
<text x="545" y="184" font-size="12" text-anchor="middle" fill="#1a1a1a">1</text>
<polygon points="605,150 635,180 605,210 575,180" fill="#ffffff" stroke="#b9bdc2" stroke-width="1.1"/>
<text x="605" y="184" font-size="12" text-anchor="middle" fill="#1a1a1a">2</text>
<polygon points="665,150 695,180 665,210 635,180" fill="#ffffff" stroke="#b9bdc2" stroke-width="1.1"/>
<text x="665" y="184" font-size="12" text-anchor="middle" fill="#1a1a1a">3</text>
<polygon points="725,150 755,180 725,210 695,180" fill="#ffffff" stroke="#b9bdc2" stroke-width="1.1"/>
<text x="725" y="184" font-size="12" text-anchor="middle" fill="#1a1a1a">4</text>
<polygon points="785,150 815,180 785,210 755,180" fill="#ffffff" stroke="#b9bdc2" stroke-width="1.1"/>
<text x="785" y="184" font-size="12" text-anchor="middle" fill="#1a1a1a">5</text>
<polygon points="575,120 605,150 575,180 545,150" fill="#ffffff" stroke="#b9bdc2" stroke-width="1.1"/>
<text x="575" y="154" font-size="12" text-anchor="middle" fill="#1a1a1a">1</text>
<polygon points="635,120 665,150 635,180 605,150" fill="#ffffff" stroke="#b9bdc2" stroke-width="1.1"/>
<text x="635" y="154" font-size="12" text-anchor="middle" fill="#1a1a1a">3</text>
<polygon points="695,120 725,150 695,180 665,150" fill="#ffffff" stroke="#b9bdc2" stroke-width="1.1"/>
<text x="695" y="154" font-size="12" text-anchor="middle" fill="#1a1a1a">3</text>
<polygon points="755,120 785,150 755,180 725,150" fill="#ffffff" stroke="#b9bdc2" stroke-width="1.1"/>
<text x="755" y="154" font-size="12" text-anchor="middle" fill="#1a1a1a">5</text>
<polygon points="605,90 635,120 605,150 575,120" fill="#ffffff" stroke="#b9bdc2" stroke-width="1.1"/>
<text x="605" y="124" font-size="12" text-anchor="middle" fill="#1a1a1a">3</text>
<polygon points="665,90 695,120 665,150 635,120" fill="#ffffff" stroke="#b9bdc2" stroke-width="1.1"/>
<text x="665" y="124" font-size="12" text-anchor="middle" fill="#1a1a1a">3</text>
<polygon points="725,90 755,120 725,150 695,120" fill="#ffffff" stroke="#b9bdc2" stroke-width="1.1"/>
<text x="725" y="124" font-size="12" text-anchor="middle" fill="#1a1a1a">3</text>
<polygon points="635,60 665,90 635,120 605,90" fill="#ffffff" stroke="#b9bdc2" stroke-width="1.1"/>
<text x="635" y="94" font-size="12" text-anchor="middle" fill="#1a1a1a">3</text>
<polygon points="695,60 725,90 695,120 665,90" fill="#ffffff" stroke="#b9bdc2" stroke-width="1.1"/>
<text x="695" y="94" font-size="12" text-anchor="middle" fill="#1a1a1a">3</text>
<polygon points="665,30 695,60 665,90 635,60" fill="#ffffff" stroke="#b9bdc2" stroke-width="1.1"/>
<text x="665" y="64" font-size="12" text-anchor="middle" fill="#1a1a1a">3</text>
<text x="504" y="184" font-size="12.5" text-anchor="middle" fill="#555">2</text>
<text x="534" y="154" font-size="12.5" text-anchor="middle" fill="#555">3</text>
<text x="564" y="124" font-size="12.5" text-anchor="middle" fill="#555">4</text>
<text x="594" y="94" font-size="12.5" text-anchor="middle" fill="#555">5</text>
<text x="624" y="64" font-size="12.5" text-anchor="middle" fill="#555">6</text>
<text x="826" y="184" font-size="12.5" text-anchor="middle" fill="#555">5</text>
<text x="796" y="154" font-size="12.5" text-anchor="middle" fill="#555">4</text>
<text x="766" y="124" font-size="12.5" text-anchor="middle" fill="#555">3</text>
<text x="736" y="94" font-size="12.5" text-anchor="middle" fill="#555">2</text>
<text x="706" y="64" font-size="12.5" text-anchor="middle" fill="#555">1</text>
<g stroke-linecap="round">
<text x="30" y="215" font-size="15" font-style="italic" fill="#2b62c9">&#8467;=1</text>
<path d="M62 210 L116 210" fill="none" stroke="#2b62c9" stroke-width="1.6" marker-end="url(#hwarr)"/>
<text x="30" y="185" font-size="15" font-style="italic" fill="#2b62c9">&#8467;=2</text>
<path d="M62 180 L146 180" fill="none" stroke="#2b62c9" stroke-width="1.6" marker-end="url(#hwarr)"/>
<text x="30" y="155" font-size="15" font-style="italic" fill="#2b62c9">&#8467;=3</text>
<path d="M62 150 L176 150" fill="none" stroke="#2b62c9" stroke-width="1.6" marker-end="url(#hwarr)"/>
<text x="30" y="125" font-size="15" font-style="italic" fill="#2b62c9">&#8467;=4</text>
<path d="M62 120 L206 120" fill="none" stroke="#2b62c9" stroke-width="1.6" marker-end="url(#hwarr)"/>
<text x="30" y="95" font-size="15" font-style="italic" fill="#2b62c9">&#8467;=5</text>
<path d="M62 90 L236 90" fill="none" stroke="#2b62c9" stroke-width="1.6" marker-end="url(#hwarr)"/>
<text x="30" y="65" font-size="15" font-style="italic" fill="#2b62c9">&#8467;=6</text>
<path d="M62 60 L266 60" fill="none" stroke="#2b62c9" stroke-width="1.6" marker-end="url(#hwarr)"/>
</g>
<ellipse cx="330" cy="150" rx="25" ry="19" fill="none" stroke="#e08a1e" stroke-width="2.3" transform="rotate(-8 330 150)" opacity="0.9"/>
<ellipse cx="210" cy="210" rx="25" ry="19" fill="none" stroke="#e08a1e" stroke-width="2.3" transform="rotate(6 210 210)" opacity="0.9"/>
<ellipse cx="240" cy="180" rx="25" ry="19" fill="none" stroke="#1f9e6b" stroke-width="2.3" transform="rotate(7 240 180)" opacity="0.9"/>
<ellipse cx="360" cy="180" rx="25" ry="19" fill="none" stroke="#1f9e6b" stroke-width="2.3" transform="rotate(-6 360 180)" opacity="0.9"/>
<ellipse cx="270" cy="150" rx="25" ry="19" fill="none" stroke="#8a3fc0" stroke-width="2.3" transform="rotate(-7 270 150)" opacity="0.9"/>
<ellipse cx="390" cy="210" rx="25" ry="19" fill="none" stroke="#8a3fc0" stroke-width="2.3" transform="rotate(5 390 210)" opacity="0.9"/>
</svg>